<svg
  xmlns="http://www.w3.org/2000/svg"
  class="daybook-logo daybook-logo--small"
  width="64"
  height="64"
  viewBox="0 0 64 64"
  role="img"
  aria-labelledby="daybookLogoTitle-small daybookLogoDesc-small"
>
  <title id="daybookLogoTitle-small">Daybook.Cloud small logo</title>
  <desc id="daybookLogoDesc-small">Daybook.Cloud D.C mark.</desc>

  <style>
    .daybook-logo {
      color-scheme: light dark;
    }

    .daybook-logo__mark-bg {
      fill: var(--daybook-logo-mark-bg, var(--tng-semantic-accent-brand, #2563eb));
    }

    .daybook-logo__mark-text {
      fill: var(--daybook-logo-mark-text, var(--tng-semantic-foreground-inverse, #ffffff));
    }

    .daybook-logo__title {
      fill: var(--daybook-logo-title, var(--tng-semantic-foreground-primary, #111827));
    }

    .daybook-logo__caption {
      fill: var(--daybook-logo-caption, var(--tng-semantic-foreground-muted, #6b7280));
    }

    .daybook-logo__shadow {
      flood-color: var(--daybook-logo-shadow, var(--tng-semantic-accent-brand, #2563eb));
      flood-opacity: var(--daybook-logo-shadow-opacity, 0.28);
    }

    @media (prefers-color-scheme: dark) {
      .daybook-logo__mark-bg {
        fill: var(--daybook-logo-mark-bg, var(--tng-semantic-accent-brand, #3b82f6));
      }

      .daybook-logo__mark-text {
        fill: var(--daybook-logo-mark-text, var(--tng-semantic-foreground-inverse, #ffffff));
      }

      .daybook-logo__title {
        fill: var(--daybook-logo-title, var(--tng-semantic-foreground-primary, #f9fafb));
      }

      .daybook-logo__caption {
        fill: var(--daybook-logo-caption, var(--tng-semantic-foreground-muted, #cbd5e1));
      }

      .daybook-logo__shadow {
        flood-color: var(--daybook-logo-shadow, var(--tng-semantic-accent-brand, #60a5fa));
        flood-opacity: var(--daybook-logo-shadow-opacity, 0.34);
      }
    }
  </style>

  <defs>
    <filter id="daybookLogoShadow-small" x="-60%" y="-60%" width="220%" height="220%">
      <feDropShadow
        class="daybook-logo__shadow"
        dx="0"
        dy="10"
        stdDeviation="10"
      />
    </filter>
  </defs>

  <rect
    class="daybook-logo__mark-bg"
    x="8"
    y="10"
    width="44"
    height="44"
    rx="14"
    filter="url(#daybookLogoShadow-small)"
  />

  <path class="daybook-logo__mark-text" d="M21.07 42.09Q19.51 42.09 17.90 40.71L17.90 40.71L17.69 41.75L13.94 41.75L17.48 25.21L21.33 24.69L18.21 39.28Q18.94 39.80 19.69 39.80L19.69 39.80Q21.17 39.80 22.30 38.08Q23.43 36.37 24.06 33.72Q24.68 31.06 24.68 28.36L24.68 28.36Q24.68 25.81 23.68 24.63Q22.68 23.45 20.89 23.45L20.89 23.45Q18.94 23.45 17.39 24.21Q15.84 24.98 14.96 26.41Q14.07 27.84 14.07 29.76L14.07 29.76Q14.07 30.73 14.26 31.10Q14.44 31.48 14.44 31.53L14.44 31.53Q13.09 31.53 12.37 30.96Q11.66 30.39 11.66 29.11L11.66 29.11Q11.66 27.35 12.98 25.76Q14.31 24.17 16.53 23.21Q18.75 22.25 21.33 22.25L21.33 22.25Q24.89 22.25 26.58 24.36Q28.27 26.46 28.27 29.74L28.27 29.74Q28.27 32.70 27.27 35.58Q26.27 38.45 24.60 40.27Q22.94 42.09 21.07 42.09L21.07 42.09ZM31.60 41.85Q30.74 41.85 30.14 41.26Q29.55 40.66 29.55 39.80L29.55 39.80Q29.55 38.94 30.14 38.33Q30.74 37.72 31.60 37.72L31.60 37.72Q32.46 37.72 33.07 38.33Q33.68 38.94 33.68 39.80L33.68 39.80Q33.68 40.66 33.07 41.26Q32.46 41.85 31.60 41.85L31.60 41.85ZM41.77 42.17Q38.83 42.17 37.45 40.68Q36.07 39.20 36.07 35.77L36.07 35.77Q36.07 33.04 36.99 29.89Q37.92 26.75 39.96 24.50Q42.00 22.25 45.14 22.25L45.14 22.25Q47.09 22.25 48.29 23.11Q49.49 23.97 49.49 25.73L49.49 25.73Q49.49 26.85 49.05 27.49Q48.60 28.13 47.67 28.13L47.67 28.13Q46.73 28.13 46.19 27.45L46.19 27.45Q46.65 27.22 47.02 26.51Q47.38 25.81 47.38 25.06L47.38 25.06Q47.38 24.36 47.00 23.91Q46.63 23.47 45.80 23.47L45.80 23.47Q44.42 23.47 43.17 25.36Q41.92 27.24 41.15 30.10Q40.39 32.96 40.39 35.61L40.39 35.61Q40.39 37.59 41.06 38.63Q41.74 39.67 43.51 39.67L43.51 39.67Q45.04 39.67 46.34 38.99Q47.64 38.32 48.58 37.07L48.58 37.07L49.17 37.33Q48.52 38.97 47.25 40.06Q45.98 41.15 44.52 41.66Q43.06 42.17 41.77 42.17L41.77 42.17Z"/>
</svg>
