<svg
  xmlns="http://www.w3.org/2000/svg"
  class="daybook-logo daybook-logo--wordmark"
  width="160"
  height="64"
  viewBox="0 0 160 64"
  role="img"
  aria-labelledby="daybookLogoTitle-wordmark daybookLogoDesc-wordmark"
>
  <title id="daybookLogoTitle-wordmark">Daybook.Cloud wordmark</title>
  <desc id="daybookLogoDesc-wordmark">Daybook.Cloud wordmark.</desc>

  <style>
    .daybook-logo {
      color-scheme: light dark;
    }

    .daybook-logo__mark-bg {
      fill: var(--daybook-logo-mark-bg, var(--tng-semantic-accent-brand, #2563eb));
    }

    .daybook-logo__mark-text {
      fill: var(--daybook-logo-mark-text, var(--tng-semantic-foreground-inverse, #ffffff));
    }

    .daybook-logo__title {
      fill: var(--daybook-logo-title, var(--tng-semantic-foreground-primary, #111827));
    }

    .daybook-logo__caption {
      fill: var(--daybook-logo-caption, var(--tng-semantic-foreground-muted, #6b7280));
    }

    .daybook-logo__shadow {
      flood-color: var(--daybook-logo-shadow, var(--tng-semantic-accent-brand, #2563eb));
      flood-opacity: var(--daybook-logo-shadow-opacity, 0.28);
    }

    @media (prefers-color-scheme: dark) {
      .daybook-logo__mark-bg {
        fill: var(--daybook-logo-mark-bg, var(--tng-semantic-accent-brand, #3b82f6));
      }

      .daybook-logo__mark-text {
        fill: var(--daybook-logo-mark-text, var(--tng-semantic-foreground-inverse, #ffffff));
      }

      .daybook-logo__title {
        fill: var(--daybook-logo-title, var(--tng-semantic-foreground-primary, #f9fafb));
      }

      .daybook-logo__caption {
        fill: var(--daybook-logo-caption, var(--tng-semantic-foreground-muted, #cbd5e1));
      }

      .daybook-logo__shadow {
        flood-color: var(--daybook-logo-shadow, var(--tng-semantic-accent-brand, #60a5fa));
        flood-opacity: var(--daybook-logo-shadow-opacity, 0.34);
      }
    }
  </style>


  <path class="daybook-logo__title" d="M16.46 40.92Q15.08 40.92 13.66 39.70L13.66 39.70L13.47 40.63L10.16 40.63L13.29 26.00L16.69 25.54L13.93 38.44Q14.58 38.90 15.25 38.90L15.25 38.90Q16.56 38.90 17.56 37.38Q18.56 35.86 19.11 33.52Q19.66 31.17 19.66 28.78L19.66 28.78Q19.66 26.53 18.78 25.48Q17.89 24.43 16.30 24.43L16.30 24.43Q14.58 24.43 13.21 25.11Q11.84 25.79 11.06 27.05Q10.28 28.32 10.28 30.02L10.28 30.02Q10.28 30.87 10.44 31.21Q10.60 31.54 10.60 31.59L10.60 31.59Q9.40 31.59 8.77 31.08Q8.14 30.57 8.14 29.45L8.14 29.45Q8.14 27.88 9.31 26.48Q10.48 25.08 12.45 24.23Q14.42 23.38 16.69 23.38L16.69 23.38Q19.84 23.38 21.34 25.24Q22.84 27.10 22.84 30.00L22.84 30.00Q22.84 32.62 21.95 35.16Q21.06 37.70 19.59 39.31Q18.12 40.92 16.46 40.92L16.46 40.92ZM26.01 40.76Q24.70 40.76 23.82 39.87Q22.95 38.97 22.95 37.06L22.95 37.06Q22.95 35.36 23.63 33.48Q24.31 31.61 25.65 30.31Q27.00 29.01 28.86 29.01L28.86 29.01Q29.80 29.01 30.26 29.33Q30.72 29.65 30.72 30.18L30.72 30.18L30.72 30.34L30.98 29.13L34.29 29.13L32.63 36.95Q32.54 37.29 32.54 37.68L32.54 37.68Q32.54 38.67 33.48 38.67L33.48 38.67Q34.13 38.67 34.60 38.07Q35.07 37.47 35.35 36.51L35.35 36.51L36.31 36.51Q35.46 38.99 34.21 39.88Q32.95 40.76 31.69 40.76L31.69 40.76Q30.72 40.76 30.14 40.22Q29.55 39.68 29.44 38.65L29.44 38.65Q28.77 39.59 27.95 40.18Q27.14 40.76 26.01 40.76L26.01 40.76ZM27.50 38.53Q28.08 38.53 28.64 37.99Q29.21 37.45 29.41 36.51L29.41 36.51L30.52 31.31Q30.52 31.01 30.29 30.72Q30.06 30.44 29.57 30.44L29.57 30.44Q28.65 30.44 27.92 31.51Q27.18 32.58 26.77 34.08Q26.35 35.59 26.35 36.74L26.35 36.74Q26.35 37.89 26.69 38.21Q27.02 38.53 27.50 38.53L27.50 38.53ZM38.94 46.38Q37.83 46.38 37.09 45.80Q36.36 45.23 36.36 44.14L36.36 44.14Q36.36 42.83 37.42 42.04Q38.48 41.25 40.11 40.72L40.11 40.72L40.38 39.48Q39.72 40.21 39.03 40.49Q38.34 40.76 37.62 40.76L37.62 40.76Q36.52 40.76 35.84 40.07Q35.16 39.38 35.16 38.00L35.16 38.00Q35.16 37.43 35.35 36.51L35.35 36.51L36.91 29.13L40.22 29.13L38.57 36.95Q38.50 37.22 38.50 37.52L38.50 37.52Q38.50 38.53 39.19 38.53L39.19 38.53Q39.79 38.53 40.25 38.01Q40.71 37.50 40.98 36.65L40.98 36.65L42.59 29.13L45.90 29.13L43.63 39.80Q44.73 39.43 45.40 38.69Q46.06 37.96 46.52 36.51L46.52 36.51L47.49 36.51Q46.87 38.55 45.81 39.51Q44.75 40.46 43.42 40.81L43.42 40.81L43.08 42.47Q42.62 44.70 41.49 45.54Q40.36 46.38 38.94 46.38L38.94 46.38ZM38.41 44.58Q38.80 44.58 39.16 44.05Q39.53 43.52 39.74 42.53L39.74 42.53L39.88 41.87Q37.62 42.70 37.62 43.82L37.62 43.82Q37.62 44.12 37.83 44.35Q38.04 44.58 38.41 44.58L38.41 44.58ZM49.58 40.76Q48.02 40.76 47.19 39.99Q46.36 39.22 46.36 37.82L46.36 37.82Q46.36 37.13 46.52 36.51L46.52 36.51L48.99 24.98L52.39 24.52L51.29 29.70Q51.93 29.31 52.34 29.18Q52.76 29.06 53.17 29.06L53.17 29.06Q55.89 29.06 55.89 32.99L55.89 32.99Q55.89 34.58 55.28 36.38Q54.67 38.19 53.25 39.48Q51.84 40.76 49.58 40.76L49.58 40.76ZM50.87 38.53Q51.59 38.53 52.21 37.65Q52.83 36.76 53.20 35.44Q53.56 34.12 53.56 32.90L53.56 32.90Q53.56 31.98 53.24 31.33Q52.92 30.69 52.34 30.69L52.34 30.69Q52.00 30.69 51.57 30.79Q51.15 30.90 50.99 31.10L50.99 31.10L49.72 36.95Q49.65 37.22 49.65 37.47L49.65 37.47Q49.65 38.53 50.87 38.53L50.87 38.53ZM60.09 40.72Q58.39 40.72 57.40 39.84Q56.41 38.97 56.41 37.08L56.41 37.08Q56.41 35.52 57.06 33.61Q57.70 31.70 59.13 30.31Q60.55 28.92 62.72 28.92L62.72 28.92Q65.66 28.92 65.66 32.60L65.66 32.60L65.66 32.62Q65.73 32.64 65.91 32.64L65.91 32.64Q66.67 32.64 67.66 32.24Q68.65 31.84 69.46 31.26L69.46 31.26L69.66 31.88Q69.00 32.60 67.93 33.09Q66.86 33.59 65.59 33.79L65.59 33.79Q65.41 35.89 64.65 37.45Q63.89 39.02 62.69 39.87Q61.50 40.72 60.09 40.72L60.09 40.72ZM61.01 38.65Q61.57 38.65 62.12 38.01Q62.67 37.38 63.08 36.29Q63.50 35.20 63.68 33.86L63.68 33.86Q63.06 33.73 63.06 32.90L63.06 32.90Q63.06 31.95 63.77 31.66L63.77 31.66Q63.73 30.90 63.54 30.61Q63.36 30.32 62.90 30.32L62.90 30.32Q62.14 30.32 61.43 31.43Q60.72 32.53 60.28 34.07Q59.84 35.61 59.84 36.78L59.84 36.78Q59.84 37.89 60.09 38.27Q60.35 38.65 61.01 38.65L61.01 38.65ZM70.19 40.72Q68.49 40.72 67.50 39.84Q66.51 38.97 66.51 37.08L66.51 37.08Q66.51 35.52 67.16 33.61Q67.80 31.70 69.23 30.31Q70.65 28.92 72.81 28.92L72.81 28.92Q75.76 28.92 75.76 32.60L75.76 32.60L75.76 32.62Q75.83 32.64 76.01 32.64L76.01 32.64Q76.77 32.64 77.76 32.24Q78.75 31.84 79.55 31.26L79.55 31.26L79.76 31.88Q79.09 32.60 78.02 33.09Q76.95 33.59 75.69 33.79L75.69 33.79Q75.50 35.89 74.75 37.45Q73.99 39.02 72.79 39.87Q71.59 40.72 70.19 40.72L70.19 40.72ZM71.11 38.65Q71.66 38.65 72.22 38.01Q72.77 37.38 73.18 36.29Q73.60 35.20 73.78 33.86L73.78 33.86Q73.16 33.73 73.16 32.90L73.16 32.90Q73.16 31.95 73.87 31.66L73.87 31.66Q73.83 30.90 73.64 30.61Q73.46 30.32 73.00 30.32L73.00 30.32Q72.24 30.32 71.53 31.43Q70.81 32.53 70.38 34.07Q69.94 35.61 69.94 36.78L69.94 36.78Q69.94 37.89 70.19 38.27Q70.44 38.65 71.11 38.65L71.11 38.65ZM85.58 40.76Q84.15 40.76 83.42 40.08Q82.68 39.41 82.68 38.14L82.68 38.14Q82.68 37.59 82.82 36.95L82.82 36.95L83.00 36.05Q83.09 35.66 83.09 35.20L83.09 35.20Q83.09 34.09 82.27 34.09L82.27 34.09Q81.90 34.09 81.50 34.30Q81.09 34.51 80.56 34.94L80.56 34.94L79.37 40.63L76.06 40.63L79.39 24.98L82.80 24.52L81.07 32.62L85.51 29.13L87.79 29.13L83.19 32.32Q83.53 32.23 83.95 32.23L83.95 32.23Q85.19 32.23 85.83 32.99Q86.48 33.75 86.48 34.92L86.48 34.92Q86.48 35.40 86.38 35.80L86.38 35.80L86.13 36.95Q86.02 37.36 86.02 37.68L86.02 37.68Q86.02 38.53 86.91 38.53L86.91 38.53Q87.60 38.53 88.02 38.04Q88.43 37.54 88.84 36.51L88.84 36.51L89.81 36.51Q88.38 40.76 85.58 40.76L85.58 40.76ZM91.37 40.72Q90.62 40.72 90.09 40.19Q89.56 39.66 89.56 38.90L89.56 38.90Q89.56 38.14 90.09 37.60Q90.62 37.06 91.37 37.06L91.37 37.06Q92.13 37.06 92.67 37.60Q93.21 38.14 93.21 38.90L93.21 38.90Q93.21 39.66 92.67 40.19Q92.13 40.72 91.37 40.72L91.37 40.72ZM100.37 40.99Q97.77 40.99 96.55 39.68Q95.33 38.37 95.33 35.34L95.33 35.34Q95.33 32.92 96.15 30.14Q96.96 27.35 98.77 25.36Q100.57 23.38 103.36 23.38L103.36 23.38Q105.08 23.38 106.14 24.13Q107.20 24.89 107.20 26.46L107.20 26.46Q107.20 27.45 106.81 28.01Q106.42 28.57 105.59 28.57L105.59 28.57Q104.76 28.57 104.28 27.98L104.28 27.98Q104.69 27.77 105.01 27.15Q105.34 26.53 105.34 25.86L105.34 25.86Q105.34 25.24 105.00 24.85Q104.67 24.46 103.93 24.46L103.93 24.46Q102.71 24.46 101.61 26.12Q100.51 27.79 99.83 30.32Q99.15 32.85 99.15 35.20L99.15 35.20Q99.15 36.95 99.75 37.87Q100.34 38.78 101.91 38.78L101.91 38.78Q103.27 38.78 104.42 38.19Q105.57 37.59 106.39 36.48L106.39 36.48L106.92 36.72Q106.35 38.16 105.22 39.13Q104.09 40.10 102.81 40.54Q101.52 40.99 100.37 40.99L100.37 40.99ZM108.60 40.76Q107.50 40.76 106.82 40.07Q106.14 39.38 106.14 38.00L106.14 38.00Q106.14 37.43 106.32 36.51L106.32 36.51L108.79 24.98L112.19 24.52L109.54 36.95Q109.45 37.29 109.45 37.68L109.45 37.68Q109.45 38.14 109.67 38.34Q109.89 38.53 110.40 38.53L110.40 38.53Q111.06 38.53 111.64 37.97Q112.21 37.41 112.47 36.51L112.47 36.51L113.43 36.51Q112.58 38.99 111.25 39.88Q109.91 40.76 108.60 40.76L108.60 40.76ZM115.82 40.72Q114.12 40.72 113.13 39.84Q112.14 38.97 112.14 37.08L112.14 37.08Q112.14 35.52 112.79 33.61Q113.43 31.70 114.86 30.31Q116.28 28.92 118.45 28.92L118.45 28.92Q121.39 28.92 121.39 32.60L121.39 32.60L121.39 32.62Q121.46 32.64 121.64 32.64L121.64 32.64Q122.40 32.64 123.39 32.24Q124.38 31.84 125.18 31.26L125.18 31.26L125.39 31.88Q124.72 32.60 123.66 33.09Q122.59 33.59 121.32 33.79L121.32 33.79Q121.14 35.89 120.38 37.45Q119.62 39.02 118.42 39.87Q117.23 40.72 115.82 40.72L115.82 40.72ZM116.74 38.65Q117.30 38.65 117.85 38.01Q118.40 37.38 118.81 36.29Q119.23 35.20 119.41 33.86L119.41 33.86Q118.79 33.73 118.79 32.90L118.79 32.90Q118.79 31.95 119.50 31.66L119.50 31.66Q119.46 30.90 119.27 30.61Q119.09 30.32 118.63 30.32L118.63 30.32Q117.87 30.32 117.16 31.43Q116.44 32.53 116.01 34.07Q115.57 35.61 115.57 36.78L115.57 36.78Q115.57 37.89 115.82 38.27Q116.08 38.65 116.74 38.65L116.74 38.65ZM124.84 40.76Q123.74 40.76 123.06 40.07Q122.38 39.38 122.38 38.00L122.38 38.00Q122.38 37.43 122.56 36.51L122.56 36.51L124.13 29.13L127.44 29.13L125.78 36.95Q125.71 37.29 125.71 37.59L125.71 37.59Q125.71 38.53 126.40 38.53L126.40 38.53Q127.05 38.53 127.51 37.99Q127.97 37.45 128.24 36.51L128.24 36.51L129.81 29.13L133.12 29.13L131.46 36.95Q131.37 37.29 131.37 37.68L131.37 37.68Q131.37 38.14 131.59 38.34Q131.81 38.53 132.31 38.53L132.31 38.53Q132.96 38.53 133.43 37.98Q133.90 37.43 134.18 36.51L134.18 36.51L135.14 36.51Q134.29 38.99 133.04 39.88Q131.79 40.76 130.52 40.76L130.52 40.76Q129.53 40.76 128.95 40.21Q128.36 39.66 128.24 38.58L128.24 38.58Q127.46 39.84 126.60 40.30Q125.74 40.76 124.84 40.76L124.84 40.76ZM136.94 40.76Q135.63 40.76 134.75 39.87Q133.88 38.97 133.88 37.06L133.88 37.06Q133.88 35.36 134.56 33.48Q135.24 31.61 136.58 30.31Q137.93 29.01 139.79 29.01L139.79 29.01Q140.73 29.01 141.19 29.33Q141.65 29.65 141.65 30.18L141.65 30.18L141.65 30.27L142.78 24.98L146.18 24.52L143.54 36.95Q143.45 37.29 143.45 37.68L143.45 37.68Q143.45 38.14 143.67 38.34Q143.88 38.53 144.39 38.53L144.39 38.53Q145.03 38.53 145.51 37.98Q145.98 37.43 146.25 36.51L146.25 36.51L147.22 36.51Q145.82 40.63 142.60 40.63L142.60 40.63Q141.65 40.63 141.07 40.12Q140.48 39.61 140.34 38.65L140.34 38.65Q139.74 39.57 138.90 40.16Q138.06 40.76 136.94 40.76L136.94 40.76ZM138.43 38.53Q138.98 38.53 139.55 38.03Q140.11 37.52 140.32 36.62L140.32 36.62L140.32 36.51L141.45 31.24Q141.24 30.44 140.50 30.44L140.50 30.44Q139.58 30.44 138.85 31.51Q138.11 32.58 137.70 34.08Q137.28 35.59 137.28 36.74L137.28 36.74Q137.28 37.89 137.62 38.21Q137.95 38.53 138.43 38.53L138.43 38.53Z"/>
</svg>
